<svg width="104" height="104" viewBox="0 0 104 104" fill="none" xmlns="http://www.w3.org/2000/svg">
<path d="M70.6574 50.0623V24.168" stroke="#2F4293" stroke-width="3" stroke-miterlimit="10" stroke-linecap="round" stroke-linejoin="round"/>
<path d="M8.66663 56.4037V84.7643C8.66663 86.7101 10.2439 88.2874 12.1897 88.2874H20.9972H62.1287" stroke="#2F4293" stroke-width="3" stroke-miterlimit="10" stroke-linecap="round" stroke-linejoin="round"/>
<path d="M55.1561 8.66658H12.1897C10.2441 8.66658 8.66663 10.2438 8.66663 12.1896V40.55" stroke="#2F4293" stroke-width="3" stroke-miterlimit="10" stroke-linecap="round" stroke-linejoin="round"/>
<path d="M70.6574 24.168L55.156 8.66662V20.8873C55.156 22.6992 56.6248 24.168 58.4367 24.168H70.6574Z" stroke="#2F4293" stroke-width="3" stroke-miterlimit="10" stroke-linecap="round" stroke-linejoin="round"/>
<path d="M55.1561 56.9287H19.4136" stroke="#2F4293" stroke-width="3" stroke-miterlimit="10" stroke-linecap="round" stroke-linejoin="round"/>
<path d="M55.1561 66.7969H19.4136" stroke="#2F4293" stroke-width="3" stroke-miterlimit="10" stroke-linecap="round" stroke-linejoin="round"/>
<path d="M40.5518 76.6648H19.4136" stroke="#2F4293" stroke-width="3" stroke-miterlimit="10" stroke-linecap="round" stroke-linejoin="round"/>
<path d="M75.6037 48.8292L95.3334 54.9889V71.4645C95.3334 83.1229 87.0546 93.1389 75.6044 95.3333C64.1543 93.1389 55.8754 83.1229 55.8754 71.4645V54.9889L75.6052 48.8292" stroke="#2F4293" stroke-width="3" stroke-miterlimit="10" stroke-linecap="round" stroke-linejoin="round"/>
<path d="M62.9214 60.1708V71.4646C62.9214 79.2727 68.179 86.0658 75.6043 88.1047C83.0296 86.0658 88.2872 79.2727 88.2872 71.4646V60.1708L75.6043 56.2111L62.9214 60.1708Z" stroke="#2F4293" stroke-width="3" stroke-miterlimit="10" stroke-linecap="round" stroke-linejoin="round"/>
<path d="M69.9675 71.2742L74.0261 75.3328L81.2412 68.1176" stroke="#2F4293" stroke-width="3" stroke-miterlimit="10" stroke-linecap="round" stroke-linejoin="round"/>
<path d="M51.8256 32.974H44.7795V25.9279H36.3243V32.974H29.2782V41.4293H36.3243V48.4753H44.7795V41.4293H51.8256V32.974Z" stroke="#2F4293" stroke-width="3" stroke-miterlimit="10" stroke-linecap="round" stroke-linejoin="round"/>
</svg>
