<svg width="104" height="104" viewBox="0 0 104 104" fill="none" xmlns="http://www.w3.org/2000/svg">
<path d="M44.3551 48.369C42.0332 48.369 39.8806 47.2059 38.5975 45.2574C38.2007 44.6547 38.3676 43.8445 38.9702 43.4477C39.5729 43.0507 40.3829 43.2178 40.7799 43.8204C41.5779 45.0325 42.9146 45.7561 44.3549 45.7561C45.7952 45.7561 47.1265 45.0325 47.9246 43.8204C48.3216 43.2178 49.1318 43.0507 49.7342 43.4477C50.3369 43.8445 50.5037 44.6547 50.1069 45.2574C48.8238 47.2057 46.6735 48.369 44.3549 48.369H44.3551ZM37.8052 33.7623C37.0837 33.7623 36.4988 34.3472 36.4988 35.0688V35.8041C36.4988 36.5257 37.0837 37.1106 37.8052 37.1106C38.5268 37.1106 39.1117 36.5257 39.1117 35.8041V35.0688C39.1117 34.3472 38.5268 33.7623 37.8052 33.7623ZM50.9048 37.1106C51.6264 37.1106 52.2113 36.5257 52.2113 35.8041V35.0688C52.2113 34.3472 51.6264 33.7623 50.9048 33.7623C50.1833 33.7623 49.5984 34.3472 49.5984 35.0688V35.8041C49.5984 36.5257 50.1833 37.1106 50.9048 37.1106ZM39.7205 40.7982H35.8901C33.9211 40.7982 32.3194 39.1987 32.3194 37.2327V32.5717C32.3194 31.1949 33.4394 30.0749 34.8162 30.0749H40.7894C42.1662 30.0749 43.2862 31.1949 43.2862 32.5717V33.3496H45.419V32.5717C45.419 31.1949 46.539 30.0749 47.9158 30.0749H53.8888C55.2656 30.0749 56.3857 31.1949 56.3857 32.5717V37.2327C56.3857 39.1987 54.7864 40.7982 52.8201 40.7982H48.9897C47.0207 40.7982 45.419 39.1987 45.419 37.2327V35.9626H43.2862V37.2327C43.2862 39.1987 41.6866 40.7982 39.7205 40.7982ZM48.0317 37.2327C48.0317 37.7491 48.4703 38.1853 48.9895 38.1853H52.8199C53.3451 38.1853 53.7725 37.7579 53.7725 37.2327V32.6876H48.0317V37.2327ZM35.8899 38.1853H39.7203C40.2455 38.1853 40.6729 37.7579 40.6729 37.2327V32.6876H34.9319V37.2327C34.9319 37.7491 35.3707 38.1853 35.8899 38.1853ZM89.2488 22.686L84.8611 49.1092C87.8184 50.3632 89.6297 53.5251 89.0847 56.8L84.5138 84.3264C83.5772 89.964 81.4313 93.2016 78.1352 93.9499C77.6589 94.0581 77.1748 94.1087 76.6873 94.1087C72.4026 94.1091 67.8016 90.2091 64.9667 87.1827V95.8999C64.9667 96.6214 64.3818 97.2063 63.6603 97.2063H23.2879C19.0706 97.2063 15.5588 94.1361 14.8616 90.1126C14.7802 89.9424 14.7333 89.7524 14.7333 89.5512V68.5424C14.7333 64.5801 17.1755 61.1424 21.7959 58.6007C25.5369 56.543 30.6012 55.1072 36.4777 54.4288V51.744C32.685 49.5913 29.8537 45.9378 28.7967 41.5946C25.4749 41.1745 22.8967 38.331 22.8967 34.8943C22.8967 33.2037 23.5227 31.6576 24.5533 30.472L23.7414 23.5446C23.2737 19.563 24.5809 15.6106 27.4223 12.4161C30.7171 8.71167 35.6527 6.5 40.6252 6.5H48.0795C53.5433 6.5 56.8554 8.60734 58.189 12.9388C62.2368 15.9458 66.0353 21.0483 64.9485 26.6973L64.2112 30.5368C65.2094 31.7136 65.8132 33.2345 65.8132 34.8943C65.8132 38.3312 63.2329 41.1746 59.9083 41.5946C58.8513 45.9388 56.02 49.5932 52.227 51.7455V54.4594C60.3586 55.3058 69.1921 56.5947 72.383 65.3481L74.9512 53.996C75.3664 52.16 76.4784 50.5937 78.0818 49.5859C79.3648 48.7796 80.8336 48.411 82.3124 48.5064L86.6711 22.2581C86.7893 21.5461 87.4645 21.0655 88.1739 21.1832C88.8858 21.3014 89.3671 21.9742 89.2488 22.686ZM46.527 61.0341L50.7188 63.9048L53.3283 57.205C52.6975 57.135 52.0614 57.0684 51.4218 57.0029L46.527 61.0339V61.0341ZM63.2004 34.8943C63.2004 33.0687 62.01 31.5167 60.3642 30.9689V37.8094C60.3642 38.155 60.3493 38.4969 60.3278 38.8372C61.9927 38.2997 63.2006 36.7356 63.2006 34.8943H63.2004ZM28.3774 38.8366C28.3557 38.4966 28.341 38.1548 28.341 37.8094V30.9694C26.698 31.5178 25.5099 33.0695 25.5099 34.8943C25.5099 36.7351 26.7155 38.2985 28.3774 38.8366ZM31.5476 20.4176C34.8142 18.2215 39.4768 20.1218 43.9854 21.9593C47.1039 23.2303 50.6389 24.6713 52.1564 23.795C53.9706 22.7418 55.8769 22.6295 57.5208 23.4808C59.0794 24.2876 59.9686 26.4808 60.258 28.2525C60.8303 28.3556 61.3777 28.5303 61.8906 28.768L62.3827 26.204C63.2687 21.5985 59.8228 17.2922 56.3026 14.7978C56.0536 14.6214 55.8743 14.3635 55.7957 14.0688C55.1796 11.7613 53.746 9.11275 48.0797 9.11275H40.6253C36.3873 9.11275 32.1816 10.9967 29.3749 14.1524C27.0364 16.7817 25.9572 20.0091 26.3368 23.24L26.9763 28.6958C27.4182 28.5047 27.8843 28.36 28.3686 28.2667C28.5381 24.3167 29.5806 21.7398 31.5478 20.4175L31.5476 20.4176ZM44.3551 51.2108C51.7417 51.2108 57.7511 45.1989 57.7511 37.8094V29.4502C57.7511 28.0642 57.0018 26.1543 56.3196 25.8012C55.4726 25.3628 54.5122 25.4487 53.4653 26.0565C50.8358 27.5735 47.0295 26.0215 42.999 24.3789C40.2808 23.2708 37.2951 22.0541 35.0663 22.0541C34.2658 22.0541 33.5631 22.2109 33.0053 22.586C31.6439 23.5011 30.9537 25.8106 30.9537 29.4502V37.8094C30.9537 45.1989 36.9655 51.2108 44.3551 51.2108ZM39.0906 52.9304V55.1065L44.3549 59.4382L49.6142 55.1068V52.9318C47.9658 53.5072 46.1972 53.8237 44.3551 53.8237C42.513 53.8237 40.7407 53.5066 39.0906 52.9304ZM35.38 57.2004L37.9913 63.905L42.1826 61.0347L37.2453 56.9719C36.6137 57.0399 35.9904 57.1147 35.38 57.2002V57.2004ZM41.9637 94.5936C44.2452 94.5936 46.1011 92.7375 46.1011 90.4562C46.1011 88.1749 44.2452 86.3186 41.9637 86.3186H39.0482V94.5936H41.9637ZM29.5358 83.7057H41.9637C45.6859 83.7057 48.7141 86.7339 48.7141 90.4562C48.7141 92.0144 48.182 93.4499 47.2917 94.5936H53.7513V77.5785H29.5358V83.7057ZM85.5336 62.2331L76.2517 60.0892L73.9273 70.3642L74.6714 72.8132C74.8812 73.5036 74.4917 74.2334 73.8013 74.4432C73.6746 74.4816 73.5469 74.4999 73.4209 74.4999C72.8608 74.4999 72.3429 74.1367 72.1716 73.5729L70.05 66.5909C67.9341 60.2833 62.4365 58.4583 56.0019 57.5399L52.5558 66.3873C52.4112 66.7587 52.1047 67.0439 51.7238 67.1615C51.5976 67.2005 51.4677 67.2197 51.3386 67.2197C51.078 67.2197 50.8203 67.1419 50.6004 66.9911L44.3551 62.714L38.1096 66.9911C37.8898 67.1417 37.6318 67.2197 37.3715 67.2197C37.2423 67.2197 37.1122 67.2005 36.9861 67.1615C36.6053 67.0439 36.2989 66.7587 36.1542 66.3873L32.7468 57.6386C28.9315 58.3719 25.6332 59.4723 23.0552 60.8904C19.267 62.9742 17.3463 65.5487 17.3463 68.5426V88.6467C17.3463 91.9258 20.0117 94.5936 23.2879 94.5936H36.4353V86.3186H28.2294C27.5078 86.3186 26.9229 85.7337 26.9229 85.0121V76.272C26.9229 75.5505 27.5078 74.9656 28.2294 74.9656H55.0577C55.7793 74.9656 56.3642 75.5505 56.3642 76.272V94.5936H62.3538V76.272C62.3538 75.5505 62.9387 74.9656 63.6603 74.9656C64.3818 74.9656 64.9667 75.5505 64.9667 76.272V83.1657C67.5013 86.5838 73.5902 92.3026 77.5568 91.4021C79.717 90.9118 81.1905 88.3871 81.9361 83.8986L85.5336 62.2331ZM83.0955 51.2722L82.8644 51.2173C81.7024 50.95 80.4951 51.1559 79.4725 51.7985C78.4613 52.434 77.7606 53.4194 77.4997 54.5729L76.8284 57.5408L85.9627 59.6506L86.5073 56.3719C86.8949 54.0424 85.3964 51.8026 83.0957 51.2724L83.0955 51.2722Z" fill="#2F4293"/>
</svg>
