<svg width="104" height="104" viewBox="0 0 104 104" fill="none" xmlns="http://www.w3.org/2000/svg">
<path d="M55.6396 59.2432C53.7243 59.4992 52.338 61.0115 52.4151 62.7607C52.6329 67.7046 54.4296 79.9583 66.3823 86.9455C66.8759 87.234 67.5082 87.0665 67.7954 86.5751C68.0834 86.0826 67.9175 85.4499 67.4251 85.162C56.3494 78.6875 54.6818 67.2758 54.4792 62.6699C54.4496 61.9971 55.0663 61.4044 55.9135 61.2911C60.5011 60.6777 65.2989 58.7684 67.7503 57.685C68.2917 57.4455 68.9368 57.4496 69.4752 57.695C71.9134 58.8068 76.6876 60.7713 81.2681 61.4381C82.1138 61.5612 82.7232 62.1609 82.6855 62.8332C82.4753 66.5859 81.3384 73.7813 76.0831 79.8057C75.708 80.2356 75.7526 80.8881 76.1824 81.2633C76.6129 81.6386 77.265 81.5935 77.64 81.1639C83.3008 74.6745 84.5232 66.9659 84.748 62.9487C84.846 61.2005 83.4778 59.6723 81.5656 59.3939C77.2387 58.7641 72.6702 56.8815 70.3322 55.8155C69.2652 55.329 67.9882 55.3217 66.915 55.7955C64.5641 56.8342 59.9732 58.6637 55.6396 59.2432Z" fill="#2F4293" stroke="#2F4293"/>
<path d="M77.1725 66.0712C77.0634 65.5408 76.562 65.1844 76.0259 65.2555C72.8977 65.6674 70.2514 67.0391 68.766 69.8197C67.1976 66.9818 64.3495 65.6529 61.1444 65.2543C60.6166 65.1884 60.1226 65.5367 60.008 66.0576C59.9992 66.0978 59.7929 67.0545 59.8399 68.3958C59.9422 71.28 61.2112 76.3156 68.5503 77.6686C68.7526 77.7128 68.9371 77.698 69.0948 77.6488C72.1039 77.0473 74.3411 75.6824 75.7427 73.5873C77.993 70.2229 77.2069 66.2393 77.1725 66.0712ZM61.9134 67.472C68.3769 68.7897 67.5595 73.9795 67.6048 75.3255C63.5032 74.1351 61.7044 71.2001 61.9134 67.472ZM74.0151 72.454C73.0797 73.8435 71.6236 74.8269 69.6776 75.3859C69.6201 74.0828 69.7516 71.8468 71.0399 70.0673C71.9734 68.7781 73.3875 67.9132 75.2529 67.4887C75.308 68.6762 75.188 70.7112 74.0151 72.454Z" fill="#2F4293" stroke="#2F4293"/>
<path d="M95.3301 48.5076C93.5553 25.8048 74.5584 8.2334 51.7356 8.2334C32.0215 8.2334 15.3209 21.3069 9.86221 39.2823C9.81968 39.4223 9.80884 39.5703 9.82554 39.7094C10.4956 45.1151 12.1997 53.2816 16.5139 61.4869C21.3705 70.724 28.4684 78.1175 37.6097 83.4611C39.8409 84.7668 42.7352 84.783 44.9831 83.5052C47.2191 82.2324 49.3584 80.8205 51.3589 79.3003C54.306 84.4156 58.2735 88.6835 63.1785 92.026C49.4552 95.9337 34.4993 92.5595 23.8216 82.9116C17.005 76.7566 12.351 68.3491 10.7165 59.2377C10.6158 58.6762 10.079 58.3024 9.51737 58.4035C8.95595 58.5042 8.58236 59.041 8.68307 59.6026C10.398 69.1622 15.2826 77.9846 22.4369 84.4447C39.0144 99.4229 64.3406 99.4715 81.0198 84.4338C83.0259 82.6268 84.9668 80.4583 85.1898 80.1089C88.731 74.4879 91.1939 66.7977 91.6274 59.0479C91.7562 56.7488 89.9385 54.7371 87.3996 54.368C81.0495 53.4443 74.3573 50.6868 70.9361 49.1269C69.5601 48.4942 67.8367 48.4415 66.3448 49.1003C65.9722 49.2656 65.4814 49.4791 64.8917 49.726C66.081 45.3902 66.5135 41.559 66.6588 38.97C66.7958 36.5084 64.8456 34.3545 62.123 33.9599C55.1768 32.9481 47.8592 29.9334 44.1152 28.2264C42.5757 27.5252 40.7327 27.515 39.1859 28.1992C35.4231 29.8618 28.0716 32.7901 21.1121 33.7206C18.3844 34.0856 16.4092 36.2173 16.5175 38.679C16.858 46.4313 19.672 65.6449 38.4005 76.5937C40.1741 77.6298 42.499 77.6673 44.3234 76.6289C45.8491 75.761 47.3178 74.8072 48.7071 73.7868C49.2031 75.0445 49.7561 76.274 50.3611 77.4618C48.3611 79.0006 46.2127 80.4281 43.9615 81.7094C42.3672 82.6158 40.2338 82.6027 38.6525 81.6777C18.5834 69.9462 13.275 50.4262 11.9039 39.6788C12.8881 36.5001 14.2943 33.3499 16.0912 30.39C25.1865 29.0421 34.5881 25.2915 39.4319 23.1509C40.83 22.5337 42.4926 22.5432 43.8802 23.1769C48.8517 25.4422 58.5794 29.4444 67.8698 30.7964C70.1752 31.1323 71.8319 32.8598 71.7236 34.814C71.5897 37.1933 71.3101 39.6318 70.8929 42.0617C70.7962 42.6239 71.1739 43.158 71.736 43.2546C72.2991 43.352 72.8322 42.9734 72.9289 42.4115C73.3595 39.9047 73.6479 37.3876 73.7863 34.9293C73.9543 31.899 71.5387 29.2435 68.1674 28.7522C59.1303 27.4372 49.6084 23.5169 44.7377 21.2974C42.8223 20.4228 40.527 20.409 38.5971 21.2612C34.1761 23.2149 25.8896 26.5347 17.6215 28.0417C25.4308 16.8897 38.0164 10.2993 51.7356 10.2993C73.3442 10.2993 91.5885 27.1531 93.2707 48.6686C93.3129 49.21 93.7653 49.621 94.2994 49.621C94.905 49.621 95.3771 49.1058 95.3301 48.5076ZM67.1809 50.9895C68.0022 50.6269 68.9503 50.6016 69.7949 50.8934C70.2558 51.0444 78.7986 55.2045 87.1023 56.4126C88.5745 56.6266 89.6331 57.71 89.5648 58.9327C89.3323 63.0861 88.232 71.1987 83.4824 78.9434C78.8683 84.3768 72.7526 88.7046 65.7083 91.2142C54.2413 84.08 48.1812 71.9077 47.5992 58.6889C47.5405 57.3851 48.7243 56.3799 50.0923 56.1989C55.6375 55.4572 62.0448 53.2684 67.1809 50.9895ZM30.0293 56.5906C27.5818 50.2817 31.0173 43.3107 37.6569 41.2458C37.8625 41.4109 37.9861 41.5808 38.0251 41.7537C38.2304 42.6603 36.7128 44.3604 36.0217 45.5519C35.2227 46.9292 35.6126 48.0192 35.8972 48.8151C36.209 49.6865 36.4149 50.2623 35.2709 51.5883C33.8602 53.2252 31.9673 54.9631 34.5211 59.0771C35.001 59.8501 35.0805 60.3933 34.9159 60.7369C34.7673 61.0473 34.3602 61.406 33.6517 61.5485C32.0401 60.2335 30.7792 58.5234 30.0293 56.5906ZM36.2762 57.9875C34.5642 55.2295 35.4055 54.5959 36.835 52.9377C38.7654 50.7001 38.2319 49.2083 37.8425 48.119C37.5813 47.3887 37.5063 47.1096 37.8087 46.5883C38.6463 45.1447 40.8593 42.9178 39.8508 40.7517C41.6028 40.5344 43.5061 40.7076 45.2656 41.2492C44.8347 41.7926 44.6071 42.3328 44.5676 42.8953C44.4814 44.1257 45.3276 44.9796 46.0074 45.6659C46.8874 46.5539 46.7216 46.7898 46.567 47.0742C45.7878 48.5069 42.0716 48.2934 41.1017 51.6783C40.5754 53.5153 42.4254 56.6567 45.7998 57.1472C45.6023 57.6661 45.5102 58.218 45.5355 58.781C45.6061 60.3833 45.7669 62.0226 46.0135 63.6652C42.7859 64.8199 38.9922 64.6481 35.7528 62.9427C37.1673 62.0645 37.7597 60.3771 36.2762 57.9875ZM53.9024 53.3836C52.4695 53.7217 51.0986 53.9799 49.8198 54.1511C48.8641 54.2776 47.9713 54.6531 47.2487 55.2179C46.8762 55.1677 46.6026 55.1474 46.4922 55.1422V55.1417C44.8116 55.0647 43.8895 54.0254 43.571 53.5819C43.1032 52.9308 43.0432 52.4014 43.0874 52.2469C43.7299 50.0045 47.2859 50.3551 48.5714 47.9916C49.9623 45.4329 46.5668 43.9193 46.6283 43.0396C46.635 42.9449 46.7095 42.6324 47.3126 42.0842C51.5204 44.2514 54.1996 48.5684 53.9024 53.3836ZM43.3017 74.8334C42.1446 75.4921 40.5936 75.4826 39.4429 74.8101C21.5918 64.3744 18.9071 46.0028 18.5814 38.5883C18.5204 37.2027 19.7261 35.9906 21.386 35.7685C28.5993 34.8038 36.1574 31.796 40.0212 30.0888C41.0373 29.6393 42.2478 29.646 43.2585 30.1064C47.1024 31.859 54.6255 34.9557 61.826 36.0045C63.4822 36.2447 64.6732 37.4703 64.5963 38.8548C64.4398 41.6382 63.9366 45.919 62.4539 50.7009C60.2099 51.5574 58.0435 52.2759 55.9892 52.8455C56.0643 47.2098 52.7044 42.2471 47.596 39.925C47.5958 39.925 47.5955 39.9248 47.5953 39.9246C37.2255 35.2289 25.5784 43.4801 27.3482 54.5634C28.7215 63.1374 37.8356 68.57 46.3697 65.7281C46.772 67.794 47.3076 69.8164 47.9675 71.7632C46.5024 72.8725 44.9362 73.9035 43.3017 74.8334Z" fill="#2F4293" stroke="#2F4293"/>
</svg>
