<svg width="104" height="104" viewBox="0 0 104 104" fill="none" xmlns="http://www.w3.org/2000/svg">
<path d="M51.8402 6.93335V13.5925" stroke="#2F4293" stroke-width="3" stroke-miterlimit="10" stroke-linecap="round" stroke-linejoin="round"/>
<path d="M35.0255 11.4387L38.3552 17.2058" stroke="#2F4293" stroke-width="3" stroke-miterlimit="10" stroke-linecap="round" stroke-linejoin="round"/>
<path d="M22.7172 23.7478L28.4841 27.0774" stroke="#2F4293" stroke-width="3" stroke-miterlimit="10" stroke-linecap="round" stroke-linejoin="round"/>
<path d="M75.197 54.0471L80.964 57.3766" stroke="#2F4293" stroke-width="3" stroke-miterlimit="10" stroke-linecap="round" stroke-linejoin="round"/>
<path d="M18.2106 40.5623H24.8697" stroke="#2F4293" stroke-width="3" stroke-miterlimit="10" stroke-linecap="round" stroke-linejoin="round"/>
<path d="M78.8098 40.5623H85.4689" stroke="#2F4293" stroke-width="3" stroke-miterlimit="10" stroke-linecap="round" stroke-linejoin="round"/>
<path d="M65.325 17.2058L68.6547 11.4387" stroke="#2F4293" stroke-width="3" stroke-miterlimit="10" stroke-linecap="round" stroke-linejoin="round"/>
<path d="M22.7172 57.3766L28.4841 54.0471" stroke="#2F4293" stroke-width="3" stroke-miterlimit="10" stroke-linecap="round" stroke-linejoin="round"/>
<path d="M75.197 27.0774L80.964 23.7478" stroke="#2F4293" stroke-width="3" stroke-miterlimit="10" stroke-linecap="round" stroke-linejoin="round"/>
<path d="M39.0845 44.1723H43.6706L41.3838 41.8855C39.9934 40.4951 39.4112 38.6927 39.5297 36.9526H31.6622C31.159 36.9526 30.751 37.3606 30.751 37.8638V43.2613C30.751 43.7645 31.159 44.1725 31.6622 44.1725H32.7065" stroke="#2F4293" stroke-width="3" stroke-miterlimit="10" stroke-linecap="round" stroke-linejoin="round"/>
<path d="M51.8405 35.0255C52.4972 33.3577 53.8317 32.0688 55.4504 31.4287V21.9041C55.4504 21.4009 55.0424 20.9929 54.5393 20.9929H49.1417C48.6385 20.9929 48.2305 21.4009 48.2305 21.9041V31.4285C49.8493 32.0688 51.1837 33.3575 51.8405 35.0255Z" stroke="#2F4293" stroke-width="3" stroke-miterlimit="10" stroke-linecap="round" stroke-linejoin="round"/>
<path d="M51.8405 52.3418L48.2305 48.7319V73.2799C48.2305 73.783 48.6385 74.191 49.1417 74.191H54.5393C55.0424 74.191 55.4504 73.783 55.4504 73.2799V48.7319L51.8405 52.3418Z" stroke="#2F4293" stroke-width="3" stroke-miterlimit="10" stroke-linecap="round" stroke-linejoin="round"/>
<path d="M72.0178 36.9524H64.1503C64.2688 38.6925 63.6868 40.4949 62.2962 41.8853L60.0094 44.172H72.0178C72.5211 44.172 72.929 43.764 72.929 43.2609V37.8633C72.929 37.3604 72.5211 36.9524 72.0178 36.9524Z" stroke="#2F4293" stroke-width="3" stroke-miterlimit="10" stroke-linecap="round" stroke-linejoin="round"/>
<path d="M60.0407 31.4007C56.6487 30.1184 53.066 31.9135 51.8405 35.0254C50.615 31.9137 47.0322 30.1184 43.6402 31.4007C39.3045 33.0398 38.1063 38.6078 41.3839 41.8853L51.8405 52.3418L62.2971 41.8853C65.5746 38.6078 64.3763 33.0398 60.0407 31.4007Z" stroke="#2F4293" stroke-width="3" stroke-miterlimit="10" stroke-linecap="round" stroke-linejoin="round"/>
<path d="M21.1824 81.0975L24.2315 84.1465L36.8052 71.5729C36.9295 71.4486 37.0674 71.3471 37.2132 71.2646L29.4044 63.4558C27.9759 62.0273 25.6601 62.0273 24.2317 63.4558C22.8032 64.8843 22.8032 67.2002 24.2317 68.6285L28.4191 72.8159C28.7591 73.1559 28.7591 73.7075 28.4191 74.0475L27.0642 75.4024C26.7242 75.7424 26.1727 75.7424 25.8325 75.4024L17.7154 67.2849V53.431C17.7154 49.9913 14.9229 47.2037 11.4814 47.2119C10.882 47.2134 10.4 47.7089 10.4 48.308V69.2329C10.4 69.9258 10.6752 70.5903 11.1652 71.0802L16.6727 76.5876" stroke="#2F4293" stroke-width="3" stroke-miterlimit="10" stroke-linecap="round" stroke-linejoin="round"/>
<path d="M49.3451 84.1123L36.5139 96.9434C35.7719 97.6855 34.569 97.6855 33.827 96.9434L23.9747 87.0912C23.2326 86.3492 23.2326 85.1463 23.9747 84.4043L36.8059 71.5731C37.5479 70.8311 38.7508 70.8311 39.4928 71.5731L49.3451 81.4254C50.087 82.1674 50.087 83.3703 49.3451 84.1123Z" stroke="#2F4293" stroke-width="3" stroke-miterlimit="10" stroke-linecap="round" stroke-linejoin="round"/>
<path d="M85.9642 63.1956V67.2849L77.8469 75.4022C77.5068 75.7423 76.9554 75.7423 76.6152 75.4022L75.2603 74.0474C74.9203 73.7073 74.9203 73.1559 75.2603 72.8157L79.4477 68.6283C80.8762 67.1998 80.8762 64.8839 79.4477 63.4556C78.0192 62.0273 75.7035 62.0271 74.275 63.4556L66.4662 71.2644C66.612 71.3469 66.7499 71.4486 66.8742 71.5727L79.4479 84.1464L92.5144 71.08C93.0044 70.5902 93.2795 69.9256 93.2795 69.2328V48.308C93.2795 47.7087 92.7976 47.2132 92.1982 47.2119C88.7567 47.2037 85.9642 49.9913 85.9642 53.431V56.8176" stroke="#2F4293" stroke-width="3" stroke-miterlimit="10" stroke-linecap="round" stroke-linejoin="round"/>
<path d="M54.3353 84.1123L67.1665 96.9434C67.9085 97.6855 69.1114 97.6855 69.8535 96.9434L79.7058 87.0912C80.4478 86.3492 80.4478 85.1463 79.7058 84.4043L66.8746 71.5731C66.1326 70.8311 64.9297 70.8311 64.1876 71.5731L54.3353 81.4254C53.5935 82.1674 53.5935 83.3703 54.3353 84.1123Z" stroke="#2F4293" stroke-width="3" stroke-miterlimit="10" stroke-linecap="round" stroke-linejoin="round"/>
</svg>
