<svg width="104" height="104" viewBox="0 0 104 104" fill="none" xmlns="http://www.w3.org/2000/svg">
<path d="M42.1762 42.1534C41.4462 41.3543 40.4067 40.8862 39.3245 40.8695C37.1479 40.8415 35.3472 42.5769 35.3103 44.7519C35.2984 45.453 35.8572 46.0309 36.5581 46.0427C36.5656 46.0429 36.5727 46.0429 36.5801 46.0429C37.2713 46.0429 37.8373 45.4885 37.849 44.7947C37.862 44.0179 38.5005 43.3946 39.2847 43.4082C39.6763 43.4143 40.0373 43.5768 40.3015 43.8659C40.7745 44.3837 41.5777 44.4199 42.0951 43.947C42.6128 43.4742 42.6492 42.671 42.1762 42.1534Z" fill="#2F4293"/>
<path d="M48.9305 46.2908C48.5413 45.3761 47.7839 44.6541 46.8517 44.31C44.9772 43.6186 42.8875 44.5795 42.193 46.4518C41.9491 47.1092 42.2844 47.8398 42.9417 48.0837C43.0873 48.1377 43.2364 48.1633 43.383 48.1633C43.8988 48.1633 44.3836 47.8468 44.5735 47.3349C44.782 46.7726 45.4105 46.4848 45.9725 46.6922C46.255 46.7964 46.4757 47.0068 46.5937 47.2844C46.8681 47.9295 47.6139 48.2305 48.2588 47.9559C48.9043 47.6815 49.2047 46.9361 48.9305 46.2908Z" fill="#2F4293"/>
<path d="M57.1129 35.047C56.6166 34.5515 55.8127 34.5526 55.3176 35.0489L54.1209 36.248C53.6256 36.7443 53.6264 37.5481 54.1227 38.0433C54.3704 38.2906 54.6949 38.4141 55.0194 38.4141C55.3447 38.4141 55.67 38.2899 55.918 38.0414L57.1148 36.8423C57.61 36.346 57.6092 35.5421 57.1129 35.047Z" fill="#2F4293"/>
<path d="M49.2145 51.4365H47.5225C46.8212 51.4365 46.253 52.0049 46.253 52.7061C46.253 53.4072 46.8212 53.9756 47.5225 53.9756H49.2145C49.9158 53.9756 50.484 53.4072 50.484 52.7061C50.484 52.0049 49.9158 51.4365 49.2145 51.4365Z" fill="#2F4293"/>
<path d="M62.1881 51.4365H60.4959C59.7946 51.4365 59.2264 52.0049 59.2264 52.7061C59.2264 53.4072 59.7948 53.9756 60.4959 53.9756H62.1881C62.8892 53.9756 63.4576 53.4072 63.4576 52.7061C63.4576 52.0049 62.8892 51.4365 62.1881 51.4365Z" fill="#2F4293"/>
<path d="M95.2926 74.3275L94.962 72.543C94.7513 71.4028 93.7556 70.5752 92.5946 70.5752C92.4488 70.5752 92.3019 70.5886 92.1574 70.6152L85.4272 71.8515L88.475 69.814C89.2738 69.2802 89.6775 68.3251 89.5034 67.3777C89.455 67.1182 89.3642 66.8692 89.2329 66.6362L88.3105 65.0029C87.9945 64.4417 87.4555 64.0248 86.8335 63.8596C86.5288 63.7784 86.2102 63.7602 85.8994 63.8007C86.2388 61.9276 86.4138 60.0145 86.4138 58.067C86.4138 57.2029 85.8942 56.4593 85.1519 56.129C86.1219 53.8222 86.188 51.1813 85.2293 48.7627C85.1516 48.566 85.0362 48.3905 84.8867 48.2409C84.7384 48.0926 84.5649 47.978 84.368 47.899C83.2192 47.4414 82.0118 47.2095 80.7793 47.2095C80.6218 47.2095 80.4648 47.2136 80.3084 47.221C80.1326 43.6777 77.2 40.849 73.6199 40.849C73.1485 40.849 72.6887 40.8991 72.2447 40.9926C72.5532 39.1475 72.3715 37.2173 71.653 35.4051C71.5758 35.2059 71.4598 35.0271 71.3022 34.867C71.1506 34.7153 70.9727 34.5984 70.7753 34.52C69.5378 34.0271 68.2371 33.7772 66.9093 33.7772C64.9092 33.7772 62.996 34.3396 61.3442 35.385C60.7408 33.6369 59.7457 31.9958 58.3553 30.6022C57.948 30.1943 57.4063 29.9695 56.83 29.9695C56.2536 29.9695 55.7119 30.1943 55.3042 30.6026L49.1575 36.7633C48.02 35.7487 46.5231 35.1422 44.8985 35.1422C44.5298 35.1422 44.1576 35.1746 43.7921 35.2382C42.4679 35.4688 41.2493 36.1169 40.3151 37.0662C39.1172 36.4881 37.7449 36.2909 36.4261 36.5204C36.136 36.5709 35.8545 36.642 35.5813 36.7286V31.9813C35.5813 28.712 32.9537 26.0475 29.7034 25.9913V23.2989C30.6984 23.1268 31.4581 22.2596 31.4581 21.2162V15.1159C31.4581 13.9493 30.509 13 29.3422 13H19.0182C17.8514 13 16.9023 13.9493 16.9023 15.1159V21.2162C16.9023 22.2596 17.662 23.1268 18.657 23.2989V25.991C15.4067 26.047 12.7793 28.7115 12.7793 31.9809V69.0335C10.2446 71.3226 8.66667 74.5165 8.66667 78.0485C8.66667 84.9964 14.7646 90.649 22.2603 90.649L73.073 90.6341C74.8073 90.6334 76.4384 89.8712 77.5478 88.5431C78.6284 87.2502 79.0877 85.5709 78.8231 83.9147L88.972 85.7386C89.1125 85.7639 89.2564 85.7767 89.3991 85.7767C89.9052 85.7767 90.3902 85.6213 90.8008 85.3278C91.3288 84.9507 91.6861 84.3669 91.7814 83.7265L92.0563 81.882C92.0959 81.6178 92.0915 81.3517 92.0433 81.0908C91.8686 80.1476 91.1504 79.3993 90.2135 79.1847L86.6363 78.364L93.3598 77.1289C93.9939 77.0124 94.5441 76.6564 94.909 76.1265C95.2733 75.5978 95.4094 74.959 95.2926 74.3275ZM80.7793 49.7482C81.5436 49.7482 82.295 49.8693 83.0174 50.1078C83.663 52.0737 83.4213 54.1941 82.4104 55.9457H78.9905L80.0818 54.8519C80.5771 54.3556 80.5761 53.5517 80.0796 53.0564C79.5831 52.5612 78.7792 52.562 78.2843 53.0585L77.7069 53.6372C77.4363 52.746 76.9637 51.9481 76.3424 51.2935C77.6025 50.2929 79.1493 49.7482 80.7793 49.7482ZM73.6199 43.3877C75.9127 43.3877 77.7778 45.2585 77.7778 47.558C77.7778 47.6007 77.7758 47.6428 77.7746 47.6852C76.4364 48.1204 75.2029 48.8474 74.1509 49.8347C73.9835 49.7713 73.8137 49.7123 73.6394 49.6641C73.268 47.6579 71.916 46.0498 70.13 45.2988C70.8713 44.1505 72.1574 43.3877 73.6199 43.3877ZM66.9092 36.316C67.7714 36.316 68.6188 36.4554 69.4354 36.7314C70.0916 38.6827 69.9576 40.7788 69.1214 42.5944C68.434 43.2205 67.8762 43.9873 67.495 44.8492C67.2684 44.8624 67.0417 44.8875 66.8178 44.9264C65.823 45.0996 64.8954 45.5312 64.1191 46.1572C63.8544 45.673 63.5302 45.2263 63.1588 44.8242L66.0701 41.9063C66.5654 41.41 66.5644 40.6061 66.0679 40.111C65.5716 39.6157 64.7677 39.6166 64.2724 40.113L61.0905 43.3023C60.485 43.016 59.8306 42.817 59.1429 42.7239C59.44 41.2089 60.1751 39.7814 61.3123 38.6416C62.8084 37.1418 64.7962 36.316 66.9092 36.316ZM57.1812 55.9457H56.0808C55.8954 55.4741 55.4372 55.1398 54.8998 55.1398C54.3624 55.1398 53.9041 55.4743 53.7188 55.9457H52.4242C52.7248 55.4562 52.6641 54.8075 52.2397 54.384C51.7434 53.8888 50.9395 53.8896 50.4443 54.3859L49.2477 55.585C49.1402 55.6927 49.0576 55.8154 48.9968 55.9457H46.4129C45.4452 54.4607 44.8546 52.7079 44.7847 50.8222H64.9255C64.8556 52.7079 64.265 54.4607 63.2973 55.9457H60.6084C60.5478 55.8154 60.4649 55.6925 60.3576 55.5848L59.1612 54.3857C58.6657 53.8896 57.8622 53.8882 57.3659 54.3837C56.9412 54.8072 56.8804 55.456 57.1812 55.9457ZM54.2286 48.2832C54.7072 46.5098 56.3249 45.2011 58.242 45.2011C60.1594 45.2011 61.7771 46.5099 62.2556 48.2832H54.2286ZM56.8247 32.6729C58.0323 33.978 58.8308 35.5275 59.2223 37.1562C58.5741 37.8606 58.0357 38.6389 57.611 39.4671C57.4182 39.3489 57.1922 39.2797 56.9497 39.2797H55.258C54.5568 39.2797 53.9884 39.8481 53.9884 40.5492C53.9884 41.2504 54.5568 41.8188 55.258 41.8188H56.742C56.6585 42.1693 56.5937 42.5241 56.5466 42.8816C56.0425 43.014 55.5611 43.2026 55.1105 43.4426C54.2644 41.9823 52.8631 40.894 51.2029 40.4575C51.2024 40.4539 51.2017 40.4504 51.2011 40.4468C51.1015 39.8723 50.9279 39.3273 50.6911 38.8207L56.8247 32.6729ZM33.8754 44.1285C33.8009 43.9203 33.7446 43.7066 33.7075 43.4923C33.3434 41.3932 34.7585 39.3877 36.8613 39.0216C37.0831 38.983 37.3084 38.9633 37.5308 38.9633C38.3672 38.9633 39.1665 39.2301 39.842 39.7347C40.1215 39.9436 40.4749 40.0281 40.8189 39.9685C41.1628 39.9087 41.467 39.7102 41.66 39.4192C42.256 38.5202 43.1678 37.9237 44.2275 37.7392C44.4497 37.7004 44.6755 37.681 44.8985 37.681C46.7794 37.681 48.378 39.0267 48.6993 40.881C48.7362 41.0934 48.7551 41.3148 48.7554 41.5391C48.7566 42.1962 49.2592 42.744 49.9139 42.8015C51.3333 42.9263 52.5415 43.8195 53.1016 45.0779C52.3518 45.9779 51.8319 47.0768 51.6346 48.2832H44.3945C43.4944 48.2832 42.722 48.8389 42.3999 49.6253C40.807 48.5405 38.9298 47.956 36.9626 47.956C35.7301 47.956 34.5227 48.1881 33.373 48.6458C33.178 48.7236 33.0037 48.8386 32.855 48.9872C32.7044 49.1378 32.5888 49.3144 32.513 49.508C32.2208 50.2449 32.026 51.0024 31.9207 51.7646C31.4657 51.2466 31.1451 50.6025 31.0198 49.8798C30.7212 48.1573 31.6229 46.4422 33.2119 45.7089C33.8091 45.4334 34.097 44.7475 33.8754 44.1285ZM37.66 55.5985L38.0063 55.9457H34.9572C34.2727 54.3576 34.1688 52.55 34.7245 50.8546C35.4479 50.6157 36.199 50.4949 36.9626 50.4949C38.8755 50.4949 40.675 51.2425 42.0293 52.5999C42.2094 52.7805 42.3772 52.9698 42.5348 53.1653C42.7499 54.1393 43.0805 55.0697 43.5064 55.9455H41.5931L39.4574 53.805C38.962 53.3088 38.1581 53.3075 37.6622 53.8029C37.1657 54.2984 37.1647 55.1022 37.66 55.5985ZM32.2535 55.9457H27.7277C27.9295 54.716 28.6692 53.6677 29.696 53.0495C30.3038 53.8639 31.0972 54.5223 32.0112 54.9684C32.0759 55.2978 32.1553 55.6243 32.2535 55.9457ZM19.4414 15.5391H28.919V20.793H19.4414V15.5391ZM27.1644 23.3321V25.9884H21.1962V23.3321H27.1644ZM15.3185 37.1295H23.5625C24.2637 37.1295 24.832 36.5611 24.832 35.8599C24.832 35.1588 24.2637 34.5904 23.5625 34.5904H15.3185V31.9809C15.3185 30.0767 16.8629 28.5275 18.7613 28.5275H29.5993C31.4978 28.5275 33.0423 30.0767 33.0423 31.9809V34.5904H30.6718C29.9705 34.5904 29.4023 35.1588 29.4023 35.8599C29.4023 36.5611 29.9705 37.1295 30.6718 37.1295H33.0423V38.2563C31.5877 39.6824 30.8323 41.7737 31.2053 43.925C31.206 43.9292 31.2069 43.9336 31.2075 43.938C29.1709 45.3354 28.0857 47.8196 28.5178 50.3134C28.5431 50.459 28.5747 50.6022 28.6092 50.7439C27.975 51.0936 27.4054 51.5452 26.9172 52.0737H15.3185V37.1295ZM15.3183 54.6125H25.443C25.3083 55.0405 25.2132 55.4858 25.1668 55.9457H24.9528C23.7844 55.9457 22.8336 56.8972 22.8336 58.0667C22.8336 60.0825 23.021 62.0615 23.384 63.9976C23.0193 63.9683 22.6452 63.9525 22.2647 63.9525C20.7294 63.9525 19.2665 64.1961 18.1461 64.6386C16.4323 65.3153 15.9585 66.2763 15.8551 66.9412C15.6734 67.0316 15.495 67.127 15.3183 67.2247V54.6125ZM31.3941 70.2083C31.8513 70.5741 32.1307 70.885 32.2927 71.1093C32.2775 71.1095 32.2616 71.1096 32.2455 71.1096C31.527 71.1096 30.2359 70.82 28.7679 70.0073C28.2213 69.7045 27.7177 69.3624 27.3114 69.0183C26.8378 68.617 26.1433 68.6173 25.67 69.0185C25.2638 69.3629 24.7604 69.7049 24.2143 70.007C22.7459 70.82 21.4549 71.1096 20.7365 71.1096C20.7201 71.1096 20.7043 71.1095 20.6889 71.1093C20.8507 70.885 21.1302 70.5739 21.5876 70.2079C21.9872 69.888 22.1556 69.3592 22.0146 68.8671C21.8735 68.3749 21.4506 68.0155 20.942 67.956C19.7031 67.8107 18.9197 67.4954 18.5529 67.2658C19.0125 66.9796 20.1743 66.4916 22.2652 66.4916C23.9968 66.4916 25.2624 66.8557 25.8694 67.1966C26.2555 67.4133 26.7263 67.4133 27.1124 67.1968C27.7197 66.8559 28.9855 66.4918 30.7172 66.4918C32.8082 66.4918 33.9699 66.9799 34.4293 67.266C34.0626 67.4957 33.2791 67.8109 32.0398 67.9561C31.5312 68.0159 31.1082 68.3751 30.9672 68.8675C30.8257 69.3597 30.9941 69.8885 31.3941 70.2083ZM28.8545 85.6603L28.8982 85.8955C29.0492 86.7109 29.3676 87.4593 29.8124 88.1099H22.2603C16.1648 88.1099 11.2057 83.5965 11.2057 78.0485C11.2057 74.257 13.5227 70.9502 16.9345 69.2355C17.3264 69.528 17.8149 69.7802 18.3945 69.9836C18.1646 70.3762 18.0045 70.7983 17.9667 71.2386C17.9166 71.8239 18.0957 72.3798 18.4715 72.804C18.968 73.3646 19.73 73.6489 20.7365 73.6489C22.0778 73.6489 23.8377 73.1178 25.4441 72.2285C25.8139 72.0239 26.1636 71.8077 26.491 71.5819C26.8182 71.8075 27.1679 72.0237 27.5379 72.2287C29.1443 73.1178 30.9042 73.6487 32.2455 73.6489H32.2457C33.2518 73.6489 34.0139 73.3646 34.5102 72.8042C34.8861 72.38 35.0654 71.8241 35.0151 71.2386C34.9774 70.7983 34.8172 70.3762 34.5874 69.9836C35.1669 69.78 35.6556 69.5278 36.0475 69.2355C38.7533 70.5954 40.7694 72.9569 41.4883 75.7673L32.5094 79.1782C29.8811 80.1769 28.344 82.9029 28.8545 85.6603ZM75.5992 86.9152C74.9732 87.6648 74.0519 88.0947 73.0718 88.095L71.7393 88.0956L70.9068 83.6006C70.779 82.9111 70.117 82.4553 69.4272 82.5834C68.738 82.7111 68.2825 83.3734 68.4101 84.0629L69.1572 88.0964L64.7891 88.0981L64.2262 85.0585C64.0984 84.3691 63.4363 83.9137 62.7467 84.0414C62.0574 84.169 61.6019 84.8313 61.7295 85.5208L62.2068 88.0991L52.0464 88.103L51.2816 83.9748C51.1537 83.2854 50.4918 82.8301 49.802 82.9579C49.1126 83.0855 48.6573 83.748 48.7849 84.4375L49.4642 88.104L34.6287 88.1098C34.6283 88.1098 34.628 88.1098 34.6276 88.1098C33.0412 88.1098 31.6817 86.9841 31.3942 85.4326L31.3506 85.1973C31.0637 83.6475 31.93 82.1144 33.4106 81.5517L38.4002 79.6562L38.7719 81.6624C38.8851 82.2737 39.4187 82.7009 40.0186 82.7009C40.0954 82.7009 40.1733 82.6938 40.2515 82.6794C40.9407 82.5516 41.3961 81.8893 41.2683 81.1998L40.8124 78.7398L48.2189 75.9262C48.8743 75.6772 49.2038 74.9439 48.9548 74.2885C48.7059 73.6329 47.9717 73.3035 47.3173 73.5525L43.8708 74.8618C42.9039 71.4387 40.4201 68.5792 37.1262 66.941C37.0228 66.2761 36.549 65.3152 34.8353 64.6384C33.7149 64.196 32.2521 63.9524 30.7168 63.9524C29.6602 63.9524 28.6512 64.069 27.7605 64.2814V63.5146C27.7605 62.8135 27.1923 62.2451 26.491 62.2451C26.1946 62.2451 25.9228 62.3474 25.7066 62.5176C25.5064 61.1934 25.3943 59.8484 25.3757 58.4844H66.7264C67.4276 58.4844 67.9959 57.916 67.9959 57.2149C67.9959 56.5138 67.4276 55.9454 66.7264 55.9454H66.2069C67.0153 54.2804 67.472 52.4137 67.472 50.4409C67.472 49.3208 66.615 48.3981 65.5229 48.2934C65.9983 47.845 66.5918 47.5426 67.2533 47.4274C67.4471 47.3937 67.6438 47.3766 67.8381 47.3766C69.4772 47.3766 70.8699 48.5491 71.1497 50.1643C71.1821 50.3513 71.1986 50.5443 71.1988 50.7381C71.1997 51.3956 71.7024 51.9437 72.3573 52.0012C73.8745 52.1344 75.1157 53.2755 75.3759 54.7759C75.445 55.1749 75.4363 55.5686 75.3671 55.9454H74.005C73.3037 55.9454 72.7355 56.5138 72.7355 57.2149C72.7355 57.916 73.3037 58.4844 74.005 58.4844H83.8721C83.8406 60.8133 83.5406 63.0881 82.9812 65.2952L76.1011 69.3567C75.6802 67.8921 74.7022 66.6499 73.3546 65.8956C71.8432 65.0498 70.0471 64.9175 68.4272 65.5328L54.2574 70.916C53.6018 71.165 53.2724 71.8983 53.5214 72.5537C53.7704 73.2093 54.5044 73.5383 55.1589 73.2897L57.0257 72.5806L57.6052 75.7099C57.7185 76.3211 58.252 76.7485 58.8521 76.7485C58.9288 76.7485 59.0066 76.7414 59.0848 76.727C59.7741 76.5994 60.2296 75.937 60.102 75.2476L59.4383 71.6642L69.3286 67.9069C70.245 67.5588 71.2603 67.6335 72.1146 68.1117C72.9674 68.5889 73.5581 69.4115 73.7355 70.3682L76.3038 84.234C76.4809 85.1902 76.2241 86.1674 75.5992 86.9152ZM80.1288 76.9781C79.5366 77.0869 79.1024 77.5967 79.089 78.1988C79.0758 78.8009 79.4875 79.3294 80.0743 79.464L89.5264 81.632L89.2903 83.2162L78.3327 81.2471L76.6199 71.9991L86.164 66.3652L86.9591 67.773L78.9089 73.1542C78.4084 73.4889 78.2117 74.1291 78.4382 74.687C78.6645 75.2449 79.2519 75.5672 79.844 75.4583L92.4895 73.1355L92.7711 74.6555L80.1288 76.9781Z" fill="#2F4293"/>
</svg>
